<svg width="24" height="24" viewBox="0 0 24 24" fill="none" shape-rendering="geometricPrecision" xmlns="http://www.w3.org/2000/svg">
<path d="M21 10.5L5.33333 10.4961C3.47773 10.4091 2 8.87713 2 7C2 5.12287 3.47773 3.58699 5.33333 3.5H21V3.83681C19.8175 4.39855 19 5.6038 19 7C19 8.3962 19.8175 9.60145 21 10.1632V10.5Z" stroke="black" stroke-width="1.4" stroke-miterlimit="10" stroke-linecap="round" stroke-linejoin="round"/>
<path d="M3 13.5L18.6667 13.5039C20.5223 13.5909 22 15.1229 22 17C22 18.8771 20.5223 20.413 18.6667 20.5L3 20.5V20.1632C4.18247 19.6015 5 18.3962 5 17C5 15.6038 4.18247 14.3985 3 13.8368V13.5Z" stroke="black" stroke-width="1.4" stroke-miterlimit="10" stroke-linecap="round" stroke-linejoin="round"/>
</svg>
