<svg width="24" height="24" viewBox="0 0 24 24" fill="none" shape-rendering="geometricPrecision" xmlns="http://www.w3.org/2000/svg">
<path d="M18.667 12.8037L18.6992 12.8047C20.9264 12.9092 22.7002 14.7473 22.7002 17C22.7001 19.2516 20.9273 21.0947 18.6992 21.1992C18.6885 21.1997 18.6777 21.2002 18.667 21.2002H3C2.81444 21.2002 2.63614 21.1263 2.50488 20.9951C2.37365 20.8639 2.29986 20.6856 2.2998 20.5V20.1631C2.29984 19.8931 2.45543 19.6473 2.69922 19.5312C3.64672 19.0811 4.29973 18.1158 4.2998 17C4.2998 15.8842 3.6467 14.919 2.69922 14.4688C2.45549 14.3527 2.29992 14.1069 2.2998 13.8369V13.5C2.2998 13.3143 2.37361 13.1362 2.50488 13.0049C2.63615 12.8736 2.81438 12.7998 3 12.7998L18.667 12.8037ZM21 2.7998C21.3865 2.79991 21.7002 3.11347 21.7002 3.5V3.83691C21.7001 4.10682 21.5445 4.35273 21.3008 4.46875C20.3532 4.91891 19.7002 5.88409 19.7002 7C19.7003 8.11582 20.3532 9.08112 21.3008 9.53125C21.5444 9.64733 21.7002 9.89316 21.7002 10.1631V10.5C21.7001 10.6856 21.6263 10.8639 21.4951 10.9951C21.3639 11.1263 21.1855 11.2001 21 11.2002L5.33301 11.1963C5.32233 11.1963 5.31145 11.1958 5.30078 11.1953C3.07356 11.0909 1.29991 9.25266 1.2998 7C1.2998 4.74825 3.0725 2.90524 5.30078 2.80078L5.33301 2.7998H21Z" fill="#0066FF"/>
<path d="M18.667 12.8037L18.6992 12.8047C20.9264 12.9092 22.7002 14.7473 22.7002 17C22.7001 19.2516 20.9273 21.0947 18.6992 21.1992C18.6885 21.1997 18.6777 21.2002 18.667 21.2002H3C2.81444 21.2002 2.63614 21.1263 2.50488 20.9951C2.37365 20.8639 2.29986 20.6856 2.2998 20.5V20.1631C2.29984 19.8931 2.45543 19.6473 2.69922 19.5312C3.64672 19.0811 4.29973 18.1158 4.2998 17C4.2998 15.8842 3.6467 14.919 2.69922 14.4688C2.45549 14.3527 2.29992 14.1069 2.2998 13.8369V13.5C2.2998 13.3143 2.37361 13.1362 2.50488 13.0049C2.63615 12.8736 2.81438 12.7998 3 12.7998L18.667 12.8037ZM21 2.7998C21.3865 2.79991 21.7002 3.11347 21.7002 3.5V3.83691C21.7001 4.10682 21.5445 4.35273 21.3008 4.46875C20.3532 4.91891 19.7002 5.88409 19.7002 7C19.7003 8.11582 20.3532 9.08112 21.3008 9.53125C21.5444 9.64733 21.7002 9.89316 21.7002 10.1631V10.5C21.7001 10.6856 21.6263 10.8639 21.4951 10.9951C21.3639 11.1263 21.1855 11.2001 21 11.2002L5.33301 11.1963C5.32233 11.1963 5.31145 11.1958 5.30078 11.1953C3.07356 11.0909 1.29991 9.25266 1.2998 7C1.2998 4.74825 3.0725 2.90524 5.30078 2.80078L5.33301 2.7998H21Z" fill="url(#paint0_radial_1915_14181)"/>
<defs>
<radialGradient id="paint0_radial_1915_14181" cx="0" cy="0" r="1" gradientUnits="userSpaceOnUse" gradientTransform="translate(12 2.91399) rotate(90) scale(18.7218 21.1407)">
<stop stop-color="white" stop-opacity="0"/>
<stop offset="1" stop-color="white" stop-opacity="0.2"/>
</radialGradient>
</defs>
</svg>
