<svg width="24" height="24" viewBox="0 0 24 24" fill="none" shape-rendering="geometricPrecision" xmlns="http://www.w3.org/2000/svg">
<g opacity="0.5">
<mask id="mask0_1891_11431" style="mask-type:luminance" maskUnits="userSpaceOnUse" x="1" y="3" width="21" height="19">
<path d="M21.2776 8.60685L14.7388 15.1247C14.4439 15.4182 14.0815 15.6451 13.6902 15.7805L7.46648 17.9478C7.38792 17.9751 7.30734 17.9887 7.22675 17.9887C7.0372 17.9887 6.8517 17.9144 6.71283 17.7765C6.51568 17.5795 6.44878 17.288 6.54101 17.0253L8.7173 10.8204C8.85313 10.4299 9.0807 10.0687 9.37414 9.77664L15.8097 3.36133H1.46875V21.9702H21.1902L21.2776 8.60685Z" fill="white"/>
</mask>
<g mask="url(#mask0_1891_11431)">
<path d="M18.9482 9.41146V19.6716C18.9482 20.4586 18.3043 21.1025 17.5173 21.1025H3.86843C3.08142 21.1025 2.4375 20.4586 2.4375 19.6716V6.02271C2.4375 5.2357 3.08142 4.5918 3.86843 4.5918H15.6461" stroke="black" stroke-width="1.4" stroke-linejoin="round"/>
</g>
<path fill-rule="evenodd" clip-rule="evenodd" d="M21.6917 2.87039C21.2234 2.40212 20.7105 2.11569 20.1897 2.04605C19.6586 1.97504 19.1601 2.13895 18.8083 2.49078L16.6432 4.65592C16.6284 4.66957 16.6139 4.68354 16.5996 4.69782L16.6004 4.69865L9.59388 11.7052C9.4531 11.846 9.3459 12.0167 9.28024 12.2046L8.10756 15.5606C8.0189 15.8143 8.08335 16.0964 8.27341 16.2865C8.46347 16.4765 8.74556 16.541 8.9993 16.4523L12.3553 15.2795C12.5433 15.2138 12.714 15.1066 12.8547 14.9659L22.069 5.75154C22.4204 5.40015 22.5849 4.90231 22.5144 4.37141C22.4453 3.85075 22.1594 3.33811 21.6917 2.87039ZM17.6036 5.67534L10.5961 12.6829L9.90817 14.6517L11.877 13.9636L18.8712 6.96945L18.8704 6.96864C18.8958 6.94323 18.9345 6.88724 18.9179 6.76261C18.9 6.62775 18.8089 6.38317 18.4931 6.06735C18.1763 5.7506 17.9309 5.65884 17.7955 5.64073C17.6898 5.62661 17.6336 5.65204 17.6036 5.67534ZM20.0399 5.80082L21.0791 4.76159C21.1045 4.73619 21.1431 4.68019 21.1266 4.55559C21.1087 4.42073 21.0176 4.17617 20.7017 3.86034C20.385 3.54358 20.1396 3.45182 20.0041 3.4337C19.879 3.41697 19.8232 3.45576 19.7983 3.48073L18.7591 4.51986C19.0084 4.65831 19.2512 4.84557 19.483 5.0774C19.7146 5.30902 19.9017 5.55165 20.0399 5.80082Z" fill="black"/>
</g>
</svg>
