<svg width="24" height="24" viewBox="0 0 24 24" fill="none" shape-rendering="geometricPrecision" xmlns="http://www.w3.org/2000/svg">
<path d="M21.7031 5.7802C21.7031 5.05213 21.7031 4.68809 21.5614 4.41001C21.4368 4.1654 21.2379 3.96652 20.9933 3.84189C20.7152 3.7002 20.3512 3.7002 19.6231 3.7002H4.37687C3.64881 3.7002 3.28477 3.7002 3.00669 3.84189C2.76208 3.96652 2.5632 4.1654 2.43857 4.41001C2.29688 4.68809 2.29688 5.05213 2.29688 5.7802V21.8632L7.61529 18.5669C7.80261 18.4508 7.89627 18.3928 7.99663 18.3517C8.08574 18.3153 8.17861 18.2888 8.27355 18.2729C8.3805 18.2549 8.49069 18.2549 8.71106 18.2549H19.6231C20.3512 18.2549 20.7152 18.2549 20.9933 18.1132C21.2379 17.9886 21.4368 17.7897 21.5614 17.5451C21.7031 17.267 21.7031 16.903 21.7031 16.1749V5.7802Z" stroke="black" stroke-width="1.4" stroke-linejoin="round"/>
<path d="M8 8.78125H16" stroke="black" stroke-width="1.4" stroke-miterlimit="10" stroke-linecap="round" stroke-linejoin="round"/>
<path d="M8 12.7812H13" stroke="black" stroke-width="1.4" stroke-miterlimit="10" stroke-linecap="round" stroke-linejoin="round"/>
</svg>
