<svg width="24" height="24" viewBox="0 0 24 24" fill="none" xmlns="http://www.w3.org/2000/svg">
<path d="M19.623 3C19.9754 3 20.2823 2.99993 20.5342 3.02051C20.7941 3.04177 21.0575 3.08834 21.3115 3.21777C21.6876 3.40951 21.9939 3.71568 22.1855 4.0918C22.3149 4.34582 22.3616 4.60923 22.3828 4.86914C22.4034 5.121 22.4033 5.42789 22.4033 5.78027V16.1748C22.4033 16.5272 22.4034 16.8341 22.3828 17.0859C22.3615 17.3459 22.315 17.6092 22.1855 17.8633C21.9938 18.2394 21.6877 18.5456 21.3115 18.7373C21.0575 18.8667 20.7941 18.9133 20.5342 18.9346C20.2823 18.9551 19.9754 18.9551 19.623 18.9551H8.71094C8.46875 18.9551 8.42571 18.9569 8.38965 18.9629C8.34586 18.9702 8.30281 18.9832 8.26172 19C8.22786 19.0139 8.19044 19.0344 7.98438 19.1621L2.66602 22.458C2.4502 22.5918 2.17794 22.598 1.95605 22.4746C1.73441 22.3511 1.59677 22.117 1.59668 21.8633V5.78027C1.59668 5.42787 1.59662 5.121 1.61719 4.86914C1.63844 4.60918 1.68502 4.34587 1.81445 4.0918C2.00618 3.7156 2.31228 3.4095 2.68848 3.21777C2.94255 3.08834 3.20586 3.04176 3.46582 3.02051C3.71768 2.99994 4.02455 3 4.37695 3H19.623ZM8 12.082C7.6134 12.082 7.2998 12.3956 7.2998 12.7822C7.30007 13.1686 7.61356 13.4824 8 13.4824H13C13.3864 13.4824 13.6999 13.1686 13.7002 12.7822C13.7002 12.3956 13.3866 12.082 13 12.082H8ZM8 8.08203C7.6134 8.08203 7.2998 8.39563 7.2998 8.78223C7.30007 9.1686 7.61356 9.48242 8 9.48242H16C16.3864 9.48242 16.6999 9.1686 16.7002 8.78223C16.7002 8.39563 16.3866 8.08203 16 8.08203H8Z" fill="#0066FF"/>
<path d="M19.623 3C19.9754 3 20.2823 2.99993 20.5342 3.02051C20.7941 3.04177 21.0575 3.08834 21.3115 3.21777C21.6876 3.40951 21.9939 3.71568 22.1855 4.0918C22.3149 4.34582 22.3616 4.60923 22.3828 4.86914C22.4034 5.121 22.4033 5.42789 22.4033 5.78027V16.1748C22.4033 16.5272 22.4034 16.8341 22.3828 17.0859C22.3615 17.3459 22.315 17.6092 22.1855 17.8633C21.9938 18.2394 21.6877 18.5456 21.3115 18.7373C21.0575 18.8667 20.7941 18.9133 20.5342 18.9346C20.2823 18.9551 19.9754 18.9551 19.623 18.9551H8.71094C8.46875 18.9551 8.42571 18.9569 8.38965 18.9629C8.34586 18.9702 8.30281 18.9832 8.26172 19C8.22786 19.0139 8.19044 19.0344 7.98438 19.1621L2.66602 22.458C2.4502 22.5918 2.17794 22.598 1.95605 22.4746C1.73441 22.3511 1.59677 22.117 1.59668 21.8633V5.78027C1.59668 5.42787 1.59662 5.121 1.61719 4.86914C1.63844 4.60918 1.68502 4.34587 1.81445 4.0918C2.00618 3.7156 2.31228 3.4095 2.68848 3.21777C2.94255 3.08834 3.20586 3.04176 3.46582 3.02051C3.71768 2.99994 4.02455 3 4.37695 3H19.623ZM8 12.082C7.6134 12.082 7.2998 12.3956 7.2998 12.7822C7.30007 13.1686 7.61356 13.4824 8 13.4824H13C13.3864 13.4824 13.6999 13.1686 13.7002 12.7822C13.7002 12.3956 13.3866 12.082 13 12.082H8ZM8 8.08203C7.6134 8.08203 7.2998 8.39563 7.2998 8.78223C7.30007 9.1686 7.61356 9.48242 8 9.48242H16C16.3864 9.48242 16.6999 9.1686 16.7002 8.78223C16.7002 8.39563 16.3866 8.08203 16 8.08203H8Z" fill="url(#paint0_radial_1915_14162)"/>
<defs>
<radialGradient id="paint0_radial_1915_14162" cx="0" cy="0" r="1" gradientUnits="userSpaceOnUse" gradientTransform="translate(12 3.1214) rotate(90) scale(19.9047 20.5541)">
<stop stop-color="white" stop-opacity="0"/>
<stop offset="1" stop-color="white" stop-opacity="0.2"/>
</radialGradient>
</defs>
</svg>
