<svg width="24" height="24" viewBox="0 0 24 24" fill="none" shape-rendering="geometricPrecision" xmlns="http://www.w3.org/2000/svg">
<g opacity="0.5">
<path d="M20.7002 3.30005C21.8045 3.30026 22.7001 4.1957 22.7002 5.30005V18.7004C22.7 19.8047 21.8045 20.7002 20.7002 20.7004H3.2998C2.19545 20.7003 1.30002 19.8048 1.2998 18.7004V5.30005C1.29991 4.19563 2.19539 3.30015 3.2998 3.30005H20.7002ZM3.2998 4.70044C2.96859 4.70054 2.7003 4.96883 2.7002 5.30005V18.7004C2.70041 19.0316 2.96865 19.2999 3.2998 19.3H9.2998V4.70044H3.2998ZM10.7002 19.3H20.7002C21.0313 19.2998 21.2996 19.0315 21.2998 18.7004V5.30005C21.2997 4.9689 21.0313 4.70065 20.7002 4.70044H10.7002V19.3ZM7 11.8499C7.3589 11.85 7.65039 12.1413 7.65039 12.5002C7.65029 12.8591 7.35883 13.1505 7 13.1506H5C4.64108 13.1506 4.34971 12.8591 4.34961 12.5002C4.34961 12.1413 4.64102 11.8499 5 11.8499H7ZM7 9.34985C7.3589 9.34996 7.65039 9.64132 7.65039 10.0002C7.65029 10.3591 7.35883 10.6505 7 10.6506H5C4.64108 10.6506 4.34971 10.3591 4.34961 10.0002C4.34961 9.64126 4.64102 9.34985 5 9.34985H7ZM7 6.84985C7.3589 6.84996 7.65039 7.14132 7.65039 7.50024C7.65029 7.85908 7.35883 8.15053 7 8.15063H5C4.64108 8.15063 4.34971 7.85914 4.34961 7.50024C4.34961 7.14126 4.64102 6.84985 5 6.84985H7Z" fill="black" fill-opacity="0.9"/>
</g>
</svg>
