<svg width="24" height="24" viewBox="0 0 24 24" fill="none" shape-rendering="geometricPrecision" xmlns="http://www.w3.org/2000/svg">
<path d="M11.9932 1.58911C16.284 1.58922 19.7627 5.06782 19.7627 9.35864C19.7626 11.7365 18.693 13.8653 17.0117 15.2893C16.6352 15.6082 16.4071 15.9979 16.3721 16.387L16.1113 19.2854C16.0583 19.874 15.7476 20.4094 15.2627 20.7473L13.1357 22.2297C12.4494 22.7078 11.5374 22.7081 10.8506 22.2307L8.71973 20.7483C8.2332 20.4099 7.92146 19.8728 7.86914 19.2825L7.61328 16.387C7.57868 15.9974 7.34942 15.6077 6.97266 15.2883C5.29228 13.8643 4.22369 11.7358 4.22363 9.35864C4.22363 5.06776 7.70228 1.58911 11.9932 1.58911ZM11.6494 21.0813C11.8555 21.2245 12.13 21.2238 12.3359 21.0803L14.0703 19.8723H9.91113L11.6494 21.0813ZM9.20312 18.4719H14.7783L14.8662 17.4973H9.11719L9.20312 18.4719ZM11.9932 2.9895C8.47548 2.9895 5.62402 5.84096 5.62402 9.35864C5.62408 11.307 6.49807 13.0506 7.87793 14.22C8.41468 14.6749 8.86826 15.319 8.9873 16.0969H14.9971C15.1164 15.3191 15.5707 14.6755 16.1074 14.2209C17.4879 13.0516 18.3622 11.3075 18.3623 9.35864C18.3623 5.84102 15.5108 2.98961 11.9932 2.9895ZM13.3379 4.68286C14.863 5.12069 16.0794 6.28293 16.5928 7.77368C16.7184 8.13912 16.5246 8.53845 16.1592 8.66431C15.7937 8.79005 15.3955 8.59509 15.2695 8.22974C14.9042 7.16855 14.0356 6.33984 12.9512 6.02856C12.5798 5.92184 12.3652 5.53383 12.4717 5.16235C12.5784 4.79091 12.9664 4.57625 13.3379 4.68286Z" fill="#0066FF"/>
</svg>
