<svg width="24" height="24" viewBox="0 0 24 24" fill="none" xmlns="http://www.w3.org/2000/svg">
<path fill-rule="evenodd" clip-rule="evenodd" d="M13.6011 21.0996C13.9875 21.0999 14.3013 21.4134 14.3013 21.7998C14.3013 22.1862 13.9875 22.4997 13.6011 22.5H10.3677C9.98113 22.5 9.66753 22.1864 9.66753 21.7998C9.66753 21.4132 9.98113 21.0996 10.3677 21.0996H13.6011ZM14.9068 18.4102C15.2932 18.4104 15.607 18.7239 15.607 19.1104C15.607 19.4968 15.2932 19.8103 14.9068 19.8105H9.06304C8.67644 19.8105 8.36284 19.497 8.36284 19.1104C8.36284 18.7238 8.67644 18.4102 9.06304 18.4102H14.9068ZM12.0015 1.22656C13.9926 1.28494 16.0138 2.12755 17.3873 3.57031C18.7607 5.01318 19.5091 6.94002 19.4693 8.93164V8.94336C19.4076 10.8102 18.6452 12.5853 17.3345 13.916C16.9798 14.2776 16.6993 14.7068 16.5103 15.1768L15.8638 16.7959C15.7879 16.9856 15.6043 17.1103 15.4 17.1104H12.0015V17.1055H8.60308C8.39854 17.1054 8.21409 16.981 8.13823 16.791L7.49175 15.1729C7.30279 14.7029 7.02316 14.2737 6.66851 13.9121C5.35758 12.5813 4.5954 10.8056 4.53374 8.93848L4.53277 8.92773C4.49289 6.93609 5.24141 5.00932 6.6148 3.56641C7.9883 2.12347 10.0102 1.28097 12.0015 1.22266V1.22656ZM10.8375 4.03516C10.7047 3.70175 10.3262 3.53927 9.99273 3.67188C8.51846 4.25916 7.36234 5.47267 6.85308 6.98535C6.73862 7.32553 6.9221 7.69405 7.26226 7.80859C7.60224 7.9227 7.97094 7.74027 8.0855 7.40039C8.47249 6.25093 9.35275 5.32551 10.4742 4.87891C10.8073 4.74597 10.97 4.36844 10.8375 4.03516Z" fill="#0066FF"/>
<path fill-rule="evenodd" clip-rule="evenodd" d="M13.6011 21.0996C13.9875 21.0999 14.3013 21.4134 14.3013 21.7998C14.3013 22.1862 13.9875 22.4997 13.6011 22.5H10.3677C9.98113 22.5 9.66753 22.1864 9.66753 21.7998C9.66753 21.4132 9.98113 21.0996 10.3677 21.0996H13.6011ZM14.9068 18.4102C15.2932 18.4104 15.607 18.7239 15.607 19.1104C15.607 19.4968 15.2932 19.8103 14.9068 19.8105H9.06304C8.67644 19.8105 8.36284 19.497 8.36284 19.1104C8.36284 18.7238 8.67644 18.4102 9.06304 18.4102H14.9068ZM12.0015 1.22656C13.9926 1.28494 16.0138 2.12755 17.3873 3.57031C18.7607 5.01318 19.5091 6.94002 19.4693 8.93164V8.94336C19.4076 10.8102 18.6452 12.5853 17.3345 13.916C16.9798 14.2776 16.6993 14.7068 16.5103 15.1768L15.8638 16.7959C15.7879 16.9856 15.6043 17.1103 15.4 17.1104H12.0015V17.1055H8.60308C8.39854 17.1054 8.21409 16.981 8.13823 16.791L7.49175 15.1729C7.30279 14.7029 7.02316 14.2737 6.66851 13.9121C5.35758 12.5813 4.5954 10.8056 4.53374 8.93848L4.53277 8.92773C4.49289 6.93609 5.24141 5.00932 6.6148 3.56641C7.9883 2.12347 10.0102 1.28097 12.0015 1.22266V1.22656ZM10.8375 4.03516C10.7047 3.70175 10.3262 3.53927 9.99273 3.67188C8.51846 4.25916 7.36234 5.47267 6.85308 6.98535C6.73862 7.32553 6.9221 7.69405 7.26226 7.80859C7.60224 7.9227 7.97094 7.74027 8.0855 7.40039C8.47249 6.25093 9.35275 5.32551 10.4742 4.87891C10.8073 4.74597 10.97 4.36844 10.8375 4.03516Z" fill="url(#paint0_radial_1915_14170)"/>
<defs>
<radialGradient id="paint0_radial_1915_14170" cx="0" cy="0" r="1" gradientUnits="userSpaceOnUse" gradientTransform="translate(12.001 1.3547) rotate(90) scale(21.649 14.7583)">
<stop stop-color="white" stop-opacity="0"/>
<stop offset="1" stop-color="white" stop-opacity="0.2"/>
</radialGradient>
</defs>
</svg>
