<svg width="20" height="20" viewBox="0 0 20 20" fill="none" xmlns="http://www.w3.org/2000/svg">
<g clip-path="url(#clip0_0_40)">
<path d="M10.3583 19.3852C8.54567 19.3852 6.92974 19.0059 5.51054 18.2471C4.09133 17.4883 2.98126 16.3993 2.18033 14.9801C1.39344 13.5468 1 11.8677 1 9.94262C1 8.07377 1.37939 6.42974 2.13817 5.01054C2.91101 3.57728 3.98595 2.46721 5.363 1.68033C6.7541 0.893443 8.33489 0.5 10.1054 0.5C11.8759 0.5 13.4286 0.858314 14.7635 1.57494C16.1124 2.27752 17.1522 3.2822 17.8829 4.58899C18.6276 5.89578 19 7.40632 19 9.12061C19 10.1745 18.8525 11.1089 18.5574 11.9239C18.2763 12.7248 17.8618 13.3501 17.3138 13.7998C16.7799 14.2494 16.1265 14.4742 15.3536 14.4742C14.6511 14.4742 14.0398 14.3056 13.5199 13.9684C13 13.6171 12.6698 13.055 12.5293 12.2822H12.466C12.2272 13.041 11.8407 13.596 11.3068 13.9473C10.7728 14.2986 10.1265 14.4742 9.36768 14.4742C8.637 14.4742 7.96955 14.2986 7.36534 13.9473C6.77518 13.582 6.30445 13.055 5.95316 12.3665C5.61592 11.6639 5.44731 10.8349 5.44731 9.87939C5.44731 9.0082 5.6089 8.22834 5.93208 7.53981C6.25527 6.83724 6.71194 6.28923 7.30211 5.89578C7.89227 5.48829 8.56674 5.28454 9.32553 5.28454C10.0141 5.28454 10.5972 5.44614 11.0749 5.76932C11.5527 6.07845 11.8899 6.4719 12.0867 6.94965H12.171L12.2342 5.51639H14.1522V11.0808C14.1522 11.6429 14.2646 12.0714 14.4895 12.3665C14.7143 12.6475 15.0164 12.7881 15.3958 12.7881C15.8033 12.7881 16.1405 12.6335 16.4075 12.3244C16.6885 12.0152 16.8923 11.5866 17.0187 11.0386C17.1593 10.4766 17.2295 9.81616 17.2295 9.05738C17.2295 7.69438 16.9344 6.48595 16.3443 5.43208C15.7681 4.37822 14.9391 3.56323 13.8571 2.98712C12.7892 2.41101 11.5386 2.12295 10.1054 2.12295C8.68618 2.12295 7.41452 2.45316 6.2904 3.11358C5.18033 3.75995 4.31616 4.68033 3.69789 5.87471C3.07963 7.05503 2.77049 8.41101 2.77049 9.94262C2.77049 11.4742 3.08665 12.8302 3.71897 14.0105C4.36534 15.1768 5.26464 16.0831 6.41686 16.7295C7.56909 17.3759 8.89696 17.6991 10.4005 17.6991C11.3138 17.6991 12.178 17.5656 12.993 17.2986C13.808 17.0316 14.5105 16.6522 15.1007 16.1604L15.9438 17.6358C15.2412 18.1838 14.3981 18.6124 13.4145 18.9215C12.445 19.2307 11.4262 19.3852 10.3583 19.3852ZM9.93677 12.7459C10.3021 12.7459 10.6393 12.6616 10.9485 12.493C11.2717 12.3244 11.5386 12.0363 11.7494 11.6288C11.9602 11.2073 12.0656 10.6522 12.0656 9.9637C12.0656 9.24707 11.9532 8.67096 11.7283 8.23536C11.5176 7.79977 11.2506 7.49063 10.9274 7.30796C10.6042 7.12529 10.281 7.03396 9.95784 7.03396C9.26932 7.03396 8.71429 7.30094 8.29274 7.83489C7.87119 8.36885 7.66042 9.07143 7.66042 9.94262C7.66042 10.7436 7.86417 11.411 8.27166 11.945C8.69321 12.4789 9.24824 12.7459 9.93677 12.7459Z" fill="black" fill-opacity="0.9"/>
</g>
<defs>
<clipPath id="clip0_0_40">
<rect width="20" height="20" fill="white"/>
</clipPath>
</defs>
</svg>
