<svg width="13" height="13" viewBox="0 0 13 13" fill="none" shape-rendering="geometricPrecision" xmlns="http://www.w3.org/2000/svg">
<path d="M11.5074 9.05474C11.5816 9.05455 11.6421 8.99424 11.6421 8.92V1.52C11.6419 1.43092 11.5691 1.35908 11.48 1.35895H4.06947C4.00132 1.35914 3.9466 1.41398 3.94632 1.48211H2.58737C2.58766 0.663891 3.25124 0.000195313 4.06947 0H11.48C12.3192 0.000129523 12.9998 0.680838 13 1.52V8.92C12.9999 9.74432 12.3317 10.4124 11.5074 10.4126V9.05474ZM1.52 13C0.680837 12.9998 0.000122327 12.3192 0 11.48V4.10737C6.78454e-05 3.26815 0.680804 2.58753 1.52 2.58737H8.89263C9.73197 2.58737 10.4126 3.26805 10.4126 4.10737V11.48C10.4125 12.3193 9.73194 13 8.89263 13H1.52ZM8.89263 11.6421C8.98185 11.6421 9.05461 11.5692 9.05474 11.48V4.10737C9.05467 4.01813 8.98189 3.94632 8.89263 3.94632H1.52C1.43089 3.94648 1.35902 4.01823 1.35895 4.10737V11.48C1.35907 11.5691 1.43092 11.6419 1.52 11.6421H8.89263Z" fill="black" fill-opacity="0.9"/>
</svg>
