<svg width="13" height="13" viewBox="0 0 13 13" fill="none" xmlns="http://www.w3.org/2000/svg">
<path fill-rule="evenodd" clip-rule="evenodd" d="M12.3454 9.68556C12.7069 9.68556 12.9998 9.97873 13 10.3401V11.4443C13 12.2722 12.329 12.9432 11.5011 12.9432H1.49891C0.671016 12.9432 0 12.2722 0 11.4443V10.3401C0.000205503 9.97873 0.293119 9.68556 0.654567 9.68556C1.01601 9.68556 1.30893 9.97873 1.30913 10.3401V11.4443C1.30913 11.549 1.39417 11.634 1.49891 11.634H11.5011C11.6058 11.634 11.6909 11.549 11.6909 11.4443V10.3401C11.6911 9.97873 11.984 9.68556 12.3454 9.68556ZM6.5 0C6.86157 0 7.15457 0.292992 7.15457 0.654567V7.46105L8.95995 5.65566C9.21558 5.40024 9.62986 5.40024 9.88548 5.65566C10.1411 5.91127 10.141 6.3255 9.88548 6.58119L6.96276 9.5039C6.70709 9.75958 6.29291 9.75958 6.03724 9.5039L3.11452 6.58119C2.85904 6.3255 2.85891 5.91127 3.11452 5.65566C3.37014 5.40024 3.78442 5.40024 4.04005 5.65566L5.84543 7.46105V0.654567C5.84543 0.292992 6.13843 0 6.5 0Z" fill="black"/>
</svg>
