<svg width="20" height="20" viewBox="0 0 20 20" fill="none" shape-rendering="geometricPrecision" xmlns="http://www.w3.org/2000/svg">
<path fill-rule="evenodd" clip-rule="evenodd" d="M12.0042 2.8417C11.8415 2.67903 11.5771 2.6791 11.4144 2.8417L10.8841 3.37197C10.7213 3.53467 10.7213 3.79905 10.8841 3.96182L11.1487 4.22647L16.1321 9.20889L1.95929 9.20987H1.58331C1.35344 9.21002 1.16747 9.39601 1.16729 9.62588V10.3759C1.16729 10.6059 1.35332 10.7927 1.58331 10.7929H16.1302L11.1487 15.7733L10.8831 16.039C10.7207 16.2018 10.7214 16.4653 10.8841 16.6278L11.4144 17.1581C11.5771 17.3207 11.8415 17.3208 12.0042 17.1581L18.6019 10.5605C18.9106 10.2513 18.9108 9.74937 18.6019 9.44033L12.0042 2.8417Z" fill="rgba(0,0,0,0.3)"/>
</svg>
