<svg width="20" height="20" viewBox="0 0 20 20" fill="none" xmlns="http://www.w3.org/2000/svg" shape-rendering="geometricPrecision">
  <path
    d="M9.99414 1.20728C13.634 1.20754 16.5849 4.15912 16.585 7.79907C16.5848 9.74994 15.7356 11.5035 14.3896 12.7092C14.009 13.0504 13.7791 13.4421 13.7441 13.8293L13.5508 15.9807C13.4978 16.5694 13.1871 17.1047 12.7021 17.4426L11.1367 18.5334C10.4502 19.0117 9.53748 19.0121 8.85059 18.5344L7.28223 17.4436C6.79585 17.1052 6.48389 16.568 6.43164 15.9778L6.24219 13.8303C6.20775 13.4423 5.97707 13.0501 5.5957 12.7083C4.25081 11.5026 3.40249 9.74908 3.40234 7.79907C3.40241 4.15911 6.35422 1.20752 9.99414 1.20728ZM9.65039 17.385C9.85639 17.5283 10.13 17.5283 10.3359 17.385L11.3525 16.677H8.63184L9.65039 17.385ZM7.77539 15.2766H12.209L12.2607 14.6975H7.72363L7.77539 15.2766ZM9.99414 2.60767C7.12742 2.60791 4.8028 4.93231 4.80273 7.79907C4.80288 9.33468 5.46914 10.7139 6.53027 11.6653C6.98719 12.0748 7.39858 12.6285 7.56641 13.2971H12.4199C12.5879 12.6287 12.9992 12.0755 13.4561 11.6663C14.518 10.7149 15.1844 9.33533 15.1846 7.79907C15.1845 4.93232 12.8608 2.60793 9.99414 2.60767ZM11.1465 3.79028C12.4544 4.1657 13.4974 5.16229 13.9375 6.44067C14.0632 6.80616 13.8684 7.2045 13.5029 7.33032C13.1377 7.45556 12.7392 7.26176 12.6133 6.89673C12.3211 6.04813 11.6268 5.3848 10.7598 5.13599C10.3886 5.02912 10.1739 4.64108 10.2803 4.26978C10.387 3.89845 10.7751 3.68392 11.1465 3.79028Z"
    fill="black" />
</svg>