<svg width="20" height="20" viewBox="0 0 20 20" fill="none" xmlns="http://www.w3.org/2000/svg" shape-rendering="geometricPrecision">
  <g clip-path="url(#clip0_2160_4919)">
    <path
      d="M10.001 0.96521C14.9902 0.965357 19.0352 5.01015 19.0352 9.99939C19.0351 14.9886 14.9902 19.0334 10.001 19.0336C5.01165 19.0336 0.966805 14.9887 0.966797 9.99939C0.966797 5.01006 5.01164 0.96521 10.001 0.96521ZM10.001 2.3656C5.78484 2.3656 2.36719 5.78326 2.36719 9.99939C2.3672 14.2155 5.78485 17.6332 10.001 17.6332C14.217 17.633 17.6348 14.2154 17.6348 9.99939C17.6348 5.78335 14.217 2.36575 10.001 2.3656ZM12.9199 11.0414C13.5593 11.0414 14.0333 11.6449 13.6973 12.1888C13.4399 12.6054 13.0994 12.978 12.6895 13.2855C11.9301 13.855 10.9797 14.1663 9.99902 14.1664C9.0182 14.1664 8.06704 13.8551 7.30762 13.2855C6.89772 12.9781 6.55715 12.6053 6.2998 12.1888C5.96388 11.645 6.43783 11.0414 7.07715 11.0414H12.9199ZM6.87305 6.87439C7.44823 6.87439 7.91478 7.34028 7.91504 7.91541C7.91504 8.49075 7.44839 8.9574 6.87305 8.9574C6.29789 8.95718 5.83203 8.49061 5.83203 7.91541C5.83229 7.34042 6.29805 6.87461 6.87305 6.87439ZM13.127 6.87439C13.702 6.87452 14.1687 7.34036 14.1689 7.91541C14.1689 8.49067 13.7022 8.95727 13.127 8.9574C12.5516 8.9574 12.085 8.49075 12.085 7.91541C12.0852 7.34028 12.5518 6.87439 13.127 6.87439Z"
      fill="black" />
  </g>
  <defs>
    <clipPath id="clip0_2160_4919">
      <rect width="20" height="20" fill="white" />
    </clipPath>
  </defs>
</svg>