<svg width="20" height="20" viewBox="0 0 20 20" fill="none" xmlns="http://www.w3.org/2000/svg" shape-rendering="geometricPrecision">
  <path
    d="M10.5621 10.9661C12.2452 10.9661 13.2539 10.957 14.1393 11.2571C15.1804 11.6101 16.0923 12.2678 16.7564 13.1438C17.3211 13.8888 17.6315 14.8482 18.1637 16.4446C18.2348 16.6579 18.1984 16.8929 18.067 17.0754C17.9354 17.2579 17.7246 17.3665 17.4996 17.3665H2.49961C2.27467 17.3665 2.0638 17.2579 1.93223 17.0754C1.80084 16.8929 1.76443 16.6579 1.83555 16.4446C2.36768 14.8482 2.67809 13.8888 3.24278 13.1438C3.90695 12.2678 4.81882 11.6101 5.85996 11.2571C6.74536 10.957 7.75402 10.9661 9.43711 10.9661H10.5621ZM9.43711 12.3665C7.65067 12.3665 6.92301 12.3752 6.30918 12.5833C5.53323 12.8464 4.85404 13.3366 4.35899 13.9895C4.04768 14.4002 3.83394 14.9192 3.4752 15.9661H16.524C16.1653 14.9192 15.9515 14.4002 15.6402 13.9895C15.1452 13.3366 14.466 12.8464 13.69 12.5833C13.0762 12.3752 12.3485 12.3665 10.5621 12.3665H9.43711ZM9.99961 2.05005C12.0888 2.05031 13.7826 3.74408 13.7828 5.83325C13.7826 7.92241 12.0888 9.61619 9.99961 9.61646C7.9104 9.61628 6.2166 7.92246 6.21641 5.83325C6.21658 3.74403 7.91039 2.05022 9.99961 2.05005ZM9.99961 3.45044C8.68359 3.45062 7.61697 4.51723 7.6168 5.83325C7.61699 7.14926 8.6836 8.21687 9.99961 8.21704C11.3156 8.21678 12.3832 7.14921 12.3834 5.83325C12.3832 4.51728 11.3156 3.4507 9.99961 3.45044Z"
    fill="black" />
</svg>