<svg width="20" height="20" viewBox="0 0 20 20" fill="none" xmlns="http://www.w3.org/2000/svg" shape-rendering="geometricPrecision">
  <path
    d="M8.21404 1.40669C9.21214 1.13925 10.2614 1.60672 10.7297 2.52779L11.5851 4.20943C12.0166 5.05843 12.3572 5.95067 12.6037 6.87056L12.7131 7.27583L16.172 7.48091C17.8148 7.57823 19.0955 8.9428 19.089 10.5883L19.0676 15.5991C19.0638 16.5011 18.4573 17.2892 17.5861 17.5229L11.6965 19.101C11.0848 19.2648 10.4317 19.1295 9.93572 18.7358L5.79802 15.4516C5.30723 15.062 4.86431 14.6153 4.47966 14.1206L4.03044 13.5424C3.26199 12.5535 3.63091 11.1047 4.77849 10.603C5.69823 10.2011 6.77425 10.484 7.37712 11.2866L7.41521 11.3383C7.66789 11.6747 8.0263 11.9165 8.43279 12.0249L8.78533 12.1186C8.93453 12.1583 9.07322 12.0267 9.04216 11.8754L8.33318 8.41939C8.10665 7.31609 7.72898 6.24822 7.21208 5.24751L6.83708 4.52193C6.19708 3.28204 6.86631 1.76811 8.21404 1.40669ZM8.57634 2.75923C8.09161 2.88948 7.85092 3.43427 8.08122 3.88033L8.45525 4.60493C9.0309 5.7194 9.45195 6.90845 9.70427 8.13716L10.4142 11.5942C10.6545 12.7644 9.57927 13.7794 8.42497 13.4721L8.07243 13.3784C7.36269 13.1892 6.73724 12.7664 6.29607 12.1792L6.257 12.1274C6.04393 11.844 5.66393 11.7443 5.33904 11.8862C5.02805 12.0223 4.92779 12.4149 5.13591 12.6831L5.58513 13.2612C5.9013 13.6678 6.2657 14.0347 6.66911 14.3549L10.8068 17.6391C10.9555 17.7569 11.1509 17.7984 11.3342 17.7495L17.2238 16.1713C17.4849 16.1012 17.6669 15.8646 17.6681 15.5942L17.6886 10.5835C17.6924 9.68091 16.99 8.93173 16.089 8.87837L12.1271 8.644C11.8262 8.62618 11.5704 8.41763 11.4924 8.12642L11.2521 7.23286C11.0308 6.40689 10.7235 5.60553 10.3361 4.84322L9.48259 3.16255C9.31411 2.83104 8.93554 2.66298 8.57634 2.75923Z"
    fill="black" />
</svg>