<svg width="20" height="20" viewBox="0 0 20 20" fill="none" xmlns="http://www.w3.org/2000/svg" shape-rendering="geometricPrecision">
  <g clip-path="url(#clip0_2160_2161)">
    <rect width="20" height="20" fill="url(#paint0_linear_2160_2161)" />
    <rect width="20" height="20" fill="url(#paint1_linear_2160_2161)" />
    <foreignObject x="-263.161" y="-263.16" width="582.232" height="582.232">
      <div xmlns="http://www.w3.org/1999/xhtml"
        style="backdrop-filter:blur(133.33px);clip-path:url(#bgblur_1_2160_2161_clip_path);height:100%;width:100%">
      </div>
    </foreignObject>
    <g filter="url(#filter0_d_2160_2161)" data-figma-bg-blur-radius="266.667">
      <path
        d="M5.73297 7.96045C6.96297 7.96045 7.96008 6.96334 7.96008 5.73334C7.96008 4.50334 6.96297 3.50623 5.73297 3.50623C4.50297 3.50623 3.50586 4.50334 3.50586 5.73334C3.50586 6.96334 4.50297 7.96045 5.73297 7.96045Z"
        fill="url(#paint2_radial_2160_2161)" />
    </g>
    <path
      d="M-9.78037 34.016C-12.9268 28.5662 -11.0596 21.5975 -5.60976 18.451L2.68235 13.6636C9.61968 9.65831 18.4506 11.4084 23.336 17.7567C26.612 22.0137 25.2297 28.1986 20.4531 30.6558L5.29971 38.4511C-0.105319 41.2316 -6.74123 39.2799 -9.78037 34.016Z"
      fill="url(#paint3_radial_2160_2161)" />
  </g>
  <defs>
    <filter id="filter0_d_2160_2161" x="-263.161" y="-263.16" width="582.232" height="582.232"
      filterUnits="userSpaceOnUse" color-interpolation-filters="sRGB">
      <feFlood flood-opacity="0" result="BackgroundImageFix" />
      <feColorMatrix in="SourceAlpha" type="matrix" values="0 0 0 0 0 0 0 0 0 0 0 0 0 0 0 0 0 0 127 0"
        result="hardAlpha" />
      <feOffset dx="88.8889" dy="88.8889" />
      <feGaussianBlur stdDeviation="111.111" />
      <feColorMatrix type="matrix" values="0 0 0 0 0 0 0 0 0 0 0 0 0 0 0 0 0 0 0.08 0" />
      <feBlend mode="normal" in2="BackgroundImageFix" result="effect1_dropShadow_2160_2161" />
      <feBlend mode="normal" in="SourceGraphic" in2="effect1_dropShadow_2160_2161" result="shape" />
    </filter>
    <clipPath id="bgblur_1_2160_2161_clip_path" transform="translate(263.161 263.16)">
      <path
        d="M5.73297 7.96045C6.96297 7.96045 7.96008 6.96334 7.96008 5.73334C7.96008 4.50334 6.96297 3.50623 5.73297 3.50623C4.50297 3.50623 3.50586 4.50334 3.50586 5.73334C3.50586 6.96334 4.50297 7.96045 5.73297 7.96045Z" />
    </clipPath>
    <linearGradient id="paint0_linear_2160_2161" x1="10" y1="5.51895e-08" x2="10" y2="20"
      gradientUnits="userSpaceOnUse">
      <stop stop-color="#007BED" />
      <stop offset="1" stop-color="#57A8F3" />
    </linearGradient>
    <linearGradient id="paint1_linear_2160_2161" x1="10" y1="0" x2="10" y2="13.3333" gradientUnits="userSpaceOnUse">
      <stop stop-color="#064CFF" />
      <stop offset="1" stop-color="#549AFF" />
    </linearGradient>
    <radialGradient id="paint2_radial_2160_2161" cx="0" cy="0" r="1" gradientUnits="userSpaceOnUse"
      gradientTransform="translate(5.73297 5.73334) rotate(90) scale(2.22711)">
      <stop offset="0.541667" stop-color="#F8CD45" />
      <stop offset="1" stop-color="#FFAB49" />
    </radialGradient>
    <radialGradient id="paint3_radial_2160_2161" cx="0" cy="0" r="1" gradientUnits="userSpaceOnUse"
      gradientTransform="translate(13.5188 7.96294) rotate(77.4123) scale(19.5438 48.1686)">
      <stop stop-color="#8CCEFF" />
      <stop offset="1" stop-color="#4D7FFF" stop-opacity="0" />
    </radialGradient>
    <clipPath id="clip0_2160_2161">
      <rect width="20" height="20" rx="2" fill="white" />
    </clipPath>
  </defs>
</svg>