<svg width="20" height="20" viewBox="0 0 20 20" fill="none" xmlns="http://www.w3.org/2000/svg" shape-rendering="geometricPrecision">
  <g clip-path="url(#clip0_2160_5160)">
    <path
      d="M5.44667 7.81041C7.30794 5.94926 10.3257 5.94996 12.187 7.8111C12.7101 8.33439 13.0863 8.94912 13.3153 9.60373L12.6386 10.2804C12.4876 10.4314 12.3189 10.554 12.1393 10.6485C12.0316 9.97215 11.7186 9.32198 11.1974 8.80064C9.8829 7.48623 7.75143 7.48622 6.4369 8.80064L3.88123 11.3563C2.56672 12.6708 2.56679 14.8023 3.88123 16.1168C5.19583 17.4309 7.32736 17.4312 8.64177 16.1168L9.99038 14.7682C10.6183 14.8929 11.262 14.9167 11.8963 14.8414L9.63131 17.1064C7.77016 18.9675 4.75234 18.9679 2.891 17.1071C1.02983 15.2458 1.02976 12.2273 2.891 10.3661L5.44667 7.81041ZM10.3633 2.89381C12.2245 1.03271 15.2423 1.03343 17.1036 2.8945C18.9643 4.75579 18.9646 7.77296 17.1036 9.63411L14.5479 12.1898C12.6867 14.0506 9.66885 14.0512 7.80761 12.1905C7.28402 11.6668 6.90756 11.051 6.67858 10.3958L7.35531 9.71905C7.50617 9.5683 7.67455 9.44465 7.85387 9.3503C7.96138 10.0273 8.27608 10.6784 8.79783 11.2002C10.1123 12.5142 12.2439 12.5144 13.5584 11.2002L16.114 8.64457C17.4283 7.33016 17.4281 5.19859 16.114 3.88403C14.7995 2.5697 12.668 2.56967 11.3535 3.88403L10.0049 5.23265C9.37657 5.10767 8.73229 5.08422 8.09763 5.15945L10.3633 2.89381Z"
      fill="black" />
  </g>
  <defs>
    <clipPath id="clip0_2160_5160">
      <rect width="20" height="20" fill="white" />
    </clipPath>
  </defs>
</svg>