<svg width="20" height="20" viewBox="0 0 20 20" fill="none" xmlns="http://www.w3.org/2000/svg" shape-rendering="geometricPrecision">
  <g clip-path="url(#clip0_2160_5103)">
    <rect width="20" height="20" rx="4" fill="url(#paint0_linear_2160_5103)" />
    <path
      d="M16.8066 17.3329H3.13965V14.3329H16.8066V17.3329ZM16.8066 13.4999H3.13965V10.4999H16.8066V13.4999ZM16.8066 9.66687H3.13965V6.66687H16.8066V9.66687ZM16.8066 5.83386H3.13965V2.83386H16.8066V5.83386Z"
      fill="#97360B" fill-opacity="0.15" />
    <g opacity="0.8" filter="url(#filter0_f_2160_5103)">
      <path
        d="M59.835 -40.9396L63.7212 -37.0533L15.2434 11.4245C15.1884 11.4795 15.1272 11.5279 15.0609 11.5687L9.53182 14.9753L9.37642 14.8198L7.55708 15.7254C7.23736 15.8845 6.89869 15.5459 7.05772 15.2262L7.96287 13.4063L7.80949 13.2529L11.2128 7.72104C11.2537 7.6546 11.3022 7.59317 11.3574 7.53802L59.835 -40.9396Z"
        fill="url(#paint1_linear_2160_5103)" />
    </g>
    <g filter="url(#filter1_i_2160_5103)">
      <path
        d="M61.2313 -37.2972L57.3213 -41.2072L10.2549 5.85922C9.58449 6.52964 9.24928 6.86485 8.94236 7.224C8.66963 7.54315 8.41373 7.87632 8.17572 8.22214C7.90788 8.6113 7.67046 9.02162 7.19563 9.84227L5.10942 13.4478L6.57863 14.917L10.1865 12.8272C11.0054 12.3529 11.4149 12.1157 11.8032 11.8482C12.1483 11.6105 12.4808 11.355 12.7994 11.0827C13.1578 10.7763 13.4924 10.4417 14.1616 9.7725L61.2313 -37.2972Z"
        fill="url(#paint2_linear_2160_5103)" />
    </g>
    <path
      d="M12.4519 11.4822L8.54199 7.57227C8.48904 7.62615 8.44232 7.68583 8.40272 7.75019L5.11008 13.4473L6.57929 14.9165L12.2743 11.6213C12.3385 11.5818 12.3981 11.5351 12.4519 11.4822Z"
      fill="url(#paint3_linear_2160_5103)" />
    <g filter="url(#filter2_i_2160_5103)">
      <path d="M6.3989 14.7314C5.68374 15.0489 4.95329 14.3183 5.27051 13.603L6.3989 14.7314Z"
        fill="url(#paint4_linear_2160_5103)" />
    </g>
  </g>
  <defs>
    <filter id="filter0_f_2160_5103" x="-8.98242" y="-56.9396" width="88.7041" height="88.7056"
      filterUnits="userSpaceOnUse" color-interpolation-filters="sRGB">
      <feFlood flood-opacity="0" result="BackgroundImageFix" />
      <feBlend mode="normal" in="SourceGraphic" in2="BackgroundImageFix" result="shape" />
      <feGaussianBlur stdDeviation="8" result="effect1_foregroundBlur_2160_5103" />
    </filter>
    <filter id="filter1_i_2160_5103" x="-10.4424" y="-43.2807" width="71.6739" height="58.1977"
      filterUnits="userSpaceOnUse" color-interpolation-filters="sRGB">
      <feFlood flood-opacity="0" result="BackgroundImageFix" />
      <feBlend mode="normal" in="SourceGraphic" in2="BackgroundImageFix" result="shape" />
      <feColorMatrix in="SourceAlpha" type="matrix" values="0 0 0 0 0 0 0 0 0 0 0 0 0 0 0 0 0 0 127 0"
        result="hardAlpha" />
      <feOffset dx="-15.5518" dy="-2.07357" />
      <feGaussianBlur stdDeviation="8.29428" />
      <feComposite in2="hardAlpha" operator="arithmetic" k2="-1" k3="1" />
      <feColorMatrix type="matrix" values="0 0 0 0 0.592157 0 0 0 0 0.211765 0 0 0 0 0.0431373 0 0 0 0.1 0" />
      <feBlend mode="normal" in2="shape" result="effect1_innerShadow_2160_5103" />
    </filter>
    <filter id="filter2_i_2160_5103" x="4.58436" y="13.603" width="1.81408" height="1.20471"
      filterUnits="userSpaceOnUse" color-interpolation-filters="sRGB">
      <feFlood flood-opacity="0" result="BackgroundImageFix" />
      <feBlend mode="normal" in="SourceGraphic" in2="BackgroundImageFix" result="shape" />
      <feColorMatrix in="SourceAlpha" type="matrix" values="0 0 0 0 0 0 0 0 0 0 0 0 0 0 0 0 0 0 127 0"
        result="hardAlpha" />
      <feOffset dx="-0.609975" />
      <feGaussianBlur stdDeviation="1.6266" />
      <feComposite in2="hardAlpha" operator="arithmetic" k2="-1" k3="1" />
      <feColorMatrix type="matrix" values="0 0 0 0 0 0 0 0 0 0 0 0 0 0 0 0 0 0 0.1 0" />
      <feBlend mode="normal" in2="shape" result="effect1_innerShadow_2160_5103" />
    </filter>
    <linearGradient id="paint0_linear_2160_5103" x1="0" y1="0" x2="20" y2="20" gradientUnits="userSpaceOnUse">
      <stop stop-color="#FFCF4B" />
      <stop offset="1" stop-color="#FFB200" />
    </linearGradient>
    <linearGradient id="paint1_linear_2160_5103" x1="7.01719" y1="15.0738" x2="26.5253" y2="-4.43426"
      gradientUnits="userSpaceOnUse">
      <stop stop-color="#97360B" stop-opacity="0.3" />
      <stop offset="0.728992" stop-color="#97360B" stop-opacity="0.05" />
    </linearGradient>
    <linearGradient id="paint2_linear_2160_5103" x1="14.2989" y1="4.78669" x2="16.7369" y2="7.22467"
      gradientUnits="userSpaceOnUse">
      <stop stop-color="#FFEFDE" />
      <stop offset="1" stop-color="#FDCB69" />
    </linearGradient>
    <linearGradient id="paint3_linear_2160_5103" x1="13.2591" y1="12.2894" x2="8.54199" y2="7.57227"
      gradientUnits="userSpaceOnUse">
      <stop stop-color="#97360B" stop-opacity="0.15" />
      <stop offset="1" stop-color="white" stop-opacity="0" />
    </linearGradient>
    <linearGradient id="paint4_linear_2160_5103" x1="6.58931" y1="14.8105" x2="5.18855" y2="13.4097"
      gradientUnits="userSpaceOnUse">
      <stop stop-color="#654B15" />
      <stop offset="1" stop-color="#9B731F" />
    </linearGradient>
    <clipPath id="clip0_2160_5103">
      <rect width="20" height="20" rx="4" fill="white" />
    </clipPath>
  </defs>
</svg>