<svg width="20" height="20" viewBox="0 0 20 20" fill="none" xmlns="http://www.w3.org/2000/svg" shape-rendering="geometricPrecision">
  <path fill-rule="evenodd" clip-rule="evenodd"
    d="M8.19141 1.42139C11.9295 1.42161 14.9598 4.45279 14.96 8.19092C14.9599 9.73546 14.4412 11.1583 13.5703 12.2974L18.3477 17.0747C18.6991 17.4262 18.6991 17.9967 18.3477 18.3481C17.9962 18.6994 17.4266 18.6994 17.0752 18.3481L12.2969 13.5698C11.1579 14.4405 9.7357 14.9594 8.19141 14.9595C4.45326 14.9594 1.4221 11.929 1.42188 8.19092C1.42201 4.45272 4.4532 1.42149 8.19141 1.42139ZM8.19141 2.82178C5.2264 2.82188 2.8224 5.22592 2.82227 8.19092C2.82249 11.1558 5.22645 13.559 8.19141 13.5591C11.1563 13.5589 13.5594 11.1558 13.5596 8.19092C13.5594 5.22599 11.1563 2.822 8.19141 2.82178Z"
    fill="black" fill-opacity="0.54" />
</svg>