<svg width="64" height="68" viewBox="0 0 64 68" fill="none" xmlns="http://www.w3.org/2000/svg">
<foreignObject x="-8" y="-8" width="80" height="80"><div xmlns="http://www.w3.org/1999/xhtml" style="backdrop-filter:blur(10px);clip-path:url(#bgblur_0_0_437_clip_path);height:100%;width:100%"></div></foreignObject><g filter="url(#filter0_ddiii_0_437)" data-figma-bg-blur-radius="20">
<path d="M12 32C12 20.9543 20.9543 12 32 12C43.0457 12 52 20.9543 52 32C52 43.0457 43.0457 52 32 52C20.9543 52 12 43.0457 12 32Z" fill="#333333" fill-opacity="0.5" style="mix-blend-mode:color-dodge" shape-rendering="crispEdges"/>
<path d="M12 32C12 20.9543 20.9543 12 32 12C43.0457 12 52 20.9543 52 32C52 43.0457 43.0457 52 32 52C20.9543 52 12 43.0457 12 32Z" fill="url(#paint0_linear_0_437)" fill-opacity="0.5" style="mix-blend-mode:luminosity" shape-rendering="crispEdges"/>
</g>
<path d="M36.25 32H27.75" stroke="black" stroke-width="1.4" stroke-miterlimit="10" stroke-linecap="round"/>
<path d="M32 36.25V27.75" stroke="black" stroke-width="1.4" stroke-miterlimit="10" stroke-linecap="round"/>
<path d="M32 42C37.5228 42 42 37.5228 42 32C42 26.4772 37.5228 22 32 22C26.4772 22 22 26.4772 22 32C22 37.5228 26.4772 42 32 42Z" stroke="black" stroke-width="1.4" stroke-linecap="round"/>
<defs>
<filter id="filter0_ddiii_0_437" x="-8" y="-8" width="80" height="80" filterUnits="userSpaceOnUse" color-interpolation-filters="sRGB">
<feFlood flood-opacity="0" result="BackgroundImageFix"/>
<feColorMatrix in="SourceAlpha" type="matrix" values="0 0 0 0 0 0 0 0 0 0 0 0 0 0 0 0 0 0 127 0" result="hardAlpha"/>
<feOffset dy="4"/>
<feGaussianBlur stdDeviation="6"/>
<feComposite in2="hardAlpha" operator="out"/>
<feColorMatrix type="matrix" values="0 0 0 0 0 0 0 0 0 0 0 0 0 0 0 0 0 0 0.08 0"/>
<feBlend mode="normal" in2="BackgroundImageFix" result="effect1_dropShadow_0_437"/>
<feColorMatrix in="SourceAlpha" type="matrix" values="0 0 0 0 0 0 0 0 0 0 0 0 0 0 0 0 0 0 127 0" result="hardAlpha"/>
<feOffset/>
<feGaussianBlur stdDeviation="6"/>
<feComposite in2="hardAlpha" operator="out"/>
<feColorMatrix type="matrix" values="0 0 0 0 0 0 0 0 0 0 0 0 0 0 0 0 0 0 0.04 0"/>
<feBlend mode="normal" in2="effect1_dropShadow_0_437" result="effect2_dropShadow_0_437"/>
<feBlend mode="normal" in="SourceGraphic" in2="effect2_dropShadow_0_437" result="shape"/>
<feColorMatrix in="SourceAlpha" type="matrix" values="0 0 0 0 0 0 0 0 0 0 0 0 0 0 0 0 0 0 127 0" result="hardAlpha"/>
<feOffset/>
<feGaussianBlur stdDeviation="0.5"/>
<feComposite in2="hardAlpha" operator="arithmetic" k2="-1" k3="1"/>
<feColorMatrix type="matrix" values="0 0 0 0 1 0 0 0 0 1 0 0 0 0 1 0 0 0 0.1 0"/>
<feBlend mode="plus-lighter" in2="shape" result="effect3_innerShadow_0_437"/>
<feColorMatrix in="SourceAlpha" type="matrix" values="0 0 0 0 0 0 0 0 0 0 0 0 0 0 0 0 0 0 127 0" result="hardAlpha"/>
<feOffset dy="-1"/>
<feGaussianBlur stdDeviation="1"/>
<feComposite in2="hardAlpha" operator="arithmetic" k2="-1" k3="1"/>
<feColorMatrix type="matrix" values="0 0 0 0 1 0 0 0 0 1 0 0 0 0 1 0 0 0 0.06 0"/>
<feBlend mode="plus-lighter" in2="effect3_innerShadow_0_437" result="effect4_innerShadow_0_437"/>
<feColorMatrix in="SourceAlpha" type="matrix" values="0 0 0 0 0 0 0 0 0 0 0 0 0 0 0 0 0 0 127 0" result="hardAlpha"/>
<feOffset dy="-2"/>
<feGaussianBlur stdDeviation="2"/>
<feComposite in2="hardAlpha" operator="arithmetic" k2="-1" k3="1"/>
<feColorMatrix type="matrix" values="0 0 0 0 1 0 0 0 0 1 0 0 0 0 1 0 0 0 0.1 0"/>
<feBlend mode="lighten" in2="effect4_innerShadow_0_437" result="effect5_innerShadow_0_437"/>
</filter>
<clipPath id="bgblur_0_0_437_clip_path" transform="translate(8 8)"><path d="M12 32C12 20.9543 20.9543 12 32 12C43.0457 12 52 20.9543 52 32C52 43.0457 43.0457 52 32 52C20.9543 52 12 43.0457 12 32Z"/>
</clipPath><linearGradient id="paint0_linear_0_437" x1="32" y1="12" x2="32" y2="52" gradientUnits="userSpaceOnUse">
<stop stop-color="white" stop-opacity="0.6"/>
<stop offset="1" stop-color="white"/>
</linearGradient>
</defs>
</svg>
