<svg width="64" height="68" viewBox="0 0 64 68" fill="none" xmlns="http://www.w3.org/2000/svg">
<foreignObject x="-8" y="-8" width="80" height="80"><div xmlns="http://www.w3.org/1999/xhtml" style="backdrop-filter:blur(10px);clip-path:url(#bgblur_0_0_444_clip_path);height:100%;width:100%"></div></foreignObject><g filter="url(#filter0_ddiii_0_444)" data-figma-bg-blur-radius="20">
<path d="M12 32C12 20.9543 20.9543 12 32 12C43.0457 12 52 20.9543 52 32C52 43.0457 43.0457 52 32 52C20.9543 52 12 43.0457 12 32Z" fill="#333333" fill-opacity="0.5" style="mix-blend-mode:color-dodge" shape-rendering="crispEdges"/>
<path d="M12 32C12 20.9543 20.9543 12 32 12C43.0457 12 52 20.9543 52 32C52 43.0457 43.0457 52 32 52C20.9543 52 12 43.0457 12 32Z" fill="url(#paint0_linear_0_444)" fill-opacity="0.5" style="mix-blend-mode:luminosity" shape-rendering="crispEdges"/>
</g>
<path d="M32 21.2939C37.9094 21.2941 42.7002 26.0848 42.7002 31.9941C42.7001 37.9034 37.9093 42.6942 32 42.6943C26.0906 42.6943 21.2999 37.9035 21.2998 31.9941C21.2998 30.8895 21.4676 29.8226 21.7793 28.8184C21.8939 28.4493 22.2862 28.2421 22.6553 28.3564C23.0243 28.4712 23.2308 28.8643 23.1162 29.2334C22.8458 30.1047 22.7002 31.0318 22.7002 31.9941C22.7003 37.1303 26.8638 41.2939 32 41.2939C37.1361 41.2938 41.2997 37.1302 41.2998 31.9941C41.2998 26.858 37.1362 22.6944 32 22.6943C31.8997 22.6943 31.7997 22.698 31.7002 22.7012V23.7979C31.7 24.0209 31.5931 24.2306 31.4131 24.3623C31.2327 24.4941 30.9999 24.5317 30.7871 24.4639L27.7686 23.501C27.4916 23.4124 27.2986 23.1615 27.2832 22.8711C27.2679 22.5804 27.4337 22.3105 27.7002 22.1934C29.0169 21.6149 30.472 21.2939 32 21.2939Z" fill="black"/>
<path d="M32.6743 27.939C32.6529 27.5638 32.3424 27.2705 31.9665 27.2705C31.5903 27.2705 31.2796 27.5645 31.2587 27.9401L30.9742 33.0693C30.9659 33.2199 31.0288 33.3657 31.1441 33.4629L34.7085 36.468C34.9908 36.7059 35.4082 36.6882 35.6692 36.4271C35.9403 36.1561 35.9476 35.719 35.6857 35.439L32.9346 32.4979L32.6743 27.939Z" fill="black"/>
<defs>
<filter id="filter0_ddiii_0_444" x="-8" y="-8" width="80" height="80" filterUnits="userSpaceOnUse" color-interpolation-filters="sRGB">
<feFlood flood-opacity="0" result="BackgroundImageFix"/>
<feColorMatrix in="SourceAlpha" type="matrix" values="0 0 0 0 0 0 0 0 0 0 0 0 0 0 0 0 0 0 127 0" result="hardAlpha"/>
<feOffset dy="4"/>
<feGaussianBlur stdDeviation="6"/>
<feComposite in2="hardAlpha" operator="out"/>
<feColorMatrix type="matrix" values="0 0 0 0 0 0 0 0 0 0 0 0 0 0 0 0 0 0 0.08 0"/>
<feBlend mode="normal" in2="BackgroundImageFix" result="effect1_dropShadow_0_444"/>
<feColorMatrix in="SourceAlpha" type="matrix" values="0 0 0 0 0 0 0 0 0 0 0 0 0 0 0 0 0 0 127 0" result="hardAlpha"/>
<feOffset/>
<feGaussianBlur stdDeviation="6"/>
<feComposite in2="hardAlpha" operator="out"/>
<feColorMatrix type="matrix" values="0 0 0 0 0 0 0 0 0 0 0 0 0 0 0 0 0 0 0.04 0"/>
<feBlend mode="normal" in2="effect1_dropShadow_0_444" result="effect2_dropShadow_0_444"/>
<feBlend mode="normal" in="SourceGraphic" in2="effect2_dropShadow_0_444" result="shape"/>
<feColorMatrix in="SourceAlpha" type="matrix" values="0 0 0 0 0 0 0 0 0 0 0 0 0 0 0 0 0 0 127 0" result="hardAlpha"/>
<feOffset/>
<feGaussianBlur stdDeviation="0.5"/>
<feComposite in2="hardAlpha" operator="arithmetic" k2="-1" k3="1"/>
<feColorMatrix type="matrix" values="0 0 0 0 1 0 0 0 0 1 0 0 0 0 1 0 0 0 0.1 0"/>
<feBlend mode="plus-lighter" in2="shape" result="effect3_innerShadow_0_444"/>
<feColorMatrix in="SourceAlpha" type="matrix" values="0 0 0 0 0 0 0 0 0 0 0 0 0 0 0 0 0 0 127 0" result="hardAlpha"/>
<feOffset dy="-1"/>
<feGaussianBlur stdDeviation="1"/>
<feComposite in2="hardAlpha" operator="arithmetic" k2="-1" k3="1"/>
<feColorMatrix type="matrix" values="0 0 0 0 1 0 0 0 0 1 0 0 0 0 1 0 0 0 0.06 0"/>
<feBlend mode="plus-lighter" in2="effect3_innerShadow_0_444" result="effect4_innerShadow_0_444"/>
<feColorMatrix in="SourceAlpha" type="matrix" values="0 0 0 0 0 0 0 0 0 0 0 0 0 0 0 0 0 0 127 0" result="hardAlpha"/>
<feOffset dy="-2"/>
<feGaussianBlur stdDeviation="2"/>
<feComposite in2="hardAlpha" operator="arithmetic" k2="-1" k3="1"/>
<feColorMatrix type="matrix" values="0 0 0 0 1 0 0 0 0 1 0 0 0 0 1 0 0 0 0.1 0"/>
<feBlend mode="lighten" in2="effect4_innerShadow_0_444" result="effect5_innerShadow_0_444"/>
</filter>
<clipPath id="bgblur_0_0_444_clip_path" transform="translate(8 8)"><path d="M12 32C12 20.9543 20.9543 12 32 12C43.0457 12 52 20.9543 52 32C52 43.0457 43.0457 52 32 52C20.9543 52 12 43.0457 12 32Z"/>
</clipPath><linearGradient id="paint0_linear_0_444" x1="32" y1="12" x2="32" y2="52" gradientUnits="userSpaceOnUse">
<stop stop-color="white" stop-opacity="0.6"/>
<stop offset="1" stop-color="white"/>
</linearGradient>
</defs>
</svg>
