<svg width="32" height="32" viewBox="0 0 32 32" fill="none" xmlns="http://www.w3.org/2000/svg">
<rect width="32" height="32" rx="16" fill="black" fill-opacity="0.04"/>
<g clip-path="url(#clip0_1944_10109)">
<path d="M21.9951 19.2422C22.2528 19.2423 22.4619 19.4513 22.4619 19.709V20.8428C22.4614 21.5785 21.8647 22.1755 21.1289 22.1758H10.8613C10.1255 22.1755 9.52881 21.5786 9.52832 20.8428V19.709C9.52832 19.4513 9.73738 19.2422 9.99512 19.2422C10.2528 19.2423 10.4619 19.4513 10.4619 19.709V20.8428C10.4624 21.0631 10.6409 21.2419 10.8613 21.2422H21.1289C21.3493 21.2419 21.5278 21.0631 21.5283 20.8428V19.709C21.5283 19.4513 21.7374 19.2422 21.9951 19.2422ZM15.9951 9.2998C16.2528 9.29988 16.4619 9.50891 16.4619 9.7666V17.248L18.665 15.0449C18.8473 14.8629 19.143 14.8628 19.3252 15.0449C19.5074 15.2271 19.5073 15.5228 19.3252 15.7051L16.3252 18.7051C16.143 18.8873 15.8473 18.8873 15.665 18.7051L12.665 15.7051C12.4828 15.5228 12.4828 15.2272 12.665 15.0449C12.8473 14.8629 13.143 14.8628 13.3252 15.0449L15.5283 17.248V9.7666C15.5283 9.50887 15.7374 9.2998 15.9951 9.2998Z" fill="black"/>
<path d="M21.9951 19.2422L21.9952 19.0622H21.9951V19.2422ZM22.4619 20.8428L22.6419 20.8429V20.8428H22.4619ZM21.1289 22.1758V22.3558H21.129L21.1289 22.1758ZM10.8613 22.1758L10.8613 22.3558H10.8613V22.1758ZM9.52832 20.8428H9.34832L9.34832 20.8429L9.52832 20.8428ZM9.99512 19.2422L9.99517 19.0622H9.99512V19.2422ZM10.4619 20.8428H10.2819L10.2819 20.8432L10.4619 20.8428ZM10.8613 21.2422L10.8611 21.4222H10.8613V21.2422ZM21.1289 21.2422V21.4222L21.1292 21.4222L21.1289 21.2422ZM21.5283 20.8428L21.7083 20.8432V20.8428H21.5283ZM15.9951 9.2998L15.9952 9.1198H15.9951V9.2998ZM16.4619 17.248H16.2819C16.2819 17.3209 16.3258 17.3865 16.393 17.4143C16.4603 17.4422 16.5377 17.4268 16.5892 17.3753L16.4619 17.248ZM18.665 15.0449L18.5378 14.9176L18.5378 14.9176L18.665 15.0449ZM19.3252 15.0449L19.4525 14.9176L19.4525 14.9176L19.3252 15.0449ZM19.3252 15.7051L19.4525 15.8324L19.4525 15.8323L19.3252 15.7051ZM16.3252 18.7051L16.1979 18.5778V18.5778L16.3252 18.7051ZM15.665 18.7051L15.7923 18.5778V18.5778L15.665 18.7051ZM12.665 15.7051L12.5377 15.8323L12.5378 15.8324L12.665 15.7051ZM12.665 15.0449L12.5378 14.9176L12.5378 14.9176L12.665 15.0449ZM13.3252 15.0449L13.4525 14.9176L13.4525 14.9176L13.3252 15.0449ZM15.5283 17.248L15.401 17.3753C15.4525 17.4268 15.5299 17.4422 15.5972 17.4143C15.6645 17.3865 15.7083 17.3209 15.7083 17.248H15.5283ZM21.9951 19.2422L21.9951 19.4222C22.1534 19.4222 22.2819 19.5508 22.2819 19.709H22.4619H22.6419C22.6419 19.3518 22.3522 19.0623 21.9952 19.0622L21.9951 19.2422ZM22.4619 19.709H22.2819V20.8428H22.4619H22.6419V19.709H22.4619ZM22.4619 20.8428L22.2819 20.8427C22.2815 21.4792 21.7652 21.9955 21.1288 21.9958L21.1289 22.1758L21.129 22.3558C21.9642 22.3554 22.6414 21.6779 22.6419 20.8429L22.4619 20.8428ZM21.1289 22.1758V21.9958H10.8613V22.1758V22.3558H21.1289V22.1758ZM10.8613 22.1758L10.8614 21.9958C10.2249 21.9956 9.70874 21.4792 9.70832 20.8427L9.52832 20.8428L9.34832 20.8429C9.34887 21.678 10.026 22.3555 10.8613 22.3558L10.8613 22.1758ZM9.52832 20.8428H9.70832V19.709H9.52832H9.34832V20.8428H9.52832ZM9.52832 19.709H9.70832C9.70832 19.5507 9.8368 19.4222 9.99512 19.4222V19.2422V19.0622C9.63797 19.0622 9.34832 19.3518 9.34832 19.709H9.52832ZM9.99512 19.2422L9.99507 19.4222C10.1534 19.4222 10.2819 19.5508 10.2819 19.709H10.4619H10.6419C10.6419 19.3518 10.3522 19.0623 9.99517 19.0622L9.99512 19.2422ZM10.4619 19.709H10.2819V20.8428H10.4619H10.6419V19.709H10.4619ZM10.4619 20.8428L10.2819 20.8432C10.2826 21.1624 10.5413 21.4218 10.8611 21.4222L10.8613 21.2422L10.8615 21.0622C10.7406 21.0621 10.6422 20.9638 10.6419 20.8424L10.4619 20.8428ZM10.8613 21.2422V21.4222H21.1289V21.2422V21.0622H10.8613V21.2422ZM21.1289 21.2422L21.1292 21.4222C21.4489 21.4217 21.7076 21.1624 21.7083 20.8432L21.5283 20.8428L21.3483 20.8424C21.3481 20.9637 21.2496 21.062 21.1287 21.0622L21.1289 21.2422ZM21.5283 20.8428H21.7083V19.709H21.5283H21.3483V20.8428H21.5283ZM21.5283 19.709H21.7083C21.7083 19.5507 21.8368 19.4222 21.9951 19.4222V19.2422V19.0622C21.638 19.0622 21.3483 19.3518 21.3483 19.709H21.5283ZM15.9951 9.2998L15.9951 9.4798C16.1534 9.47985 16.2819 9.60837 16.2819 9.7666H16.4619H16.6419C16.6419 9.40945 16.3522 9.1199 15.9952 9.1198L15.9951 9.2998ZM16.4619 9.7666H16.2819V17.248H16.4619H16.6419V9.7666H16.4619ZM16.4619 17.248L16.5892 17.3753L18.7923 15.1722L18.665 15.0449L18.5378 14.9176L16.3346 17.1208L16.4619 17.248ZM18.665 15.0449L18.7923 15.1723C18.9043 15.0604 19.0861 15.0604 19.1979 15.1722L19.3252 15.0449L19.4525 14.9176C19.1999 14.6651 18.7903 14.6653 18.5378 14.9176L18.665 15.0449ZM19.3252 15.0449L19.1979 15.1722C19.3098 15.284 19.3098 15.4658 19.1979 15.5779L19.3252 15.7051L19.4525 15.8323C19.7048 15.5798 19.705 15.1702 19.4525 14.9176L19.3252 15.0449ZM19.3252 15.7051L19.1979 15.5778L16.1979 18.5778L16.3252 18.7051L16.4525 18.8324L19.4525 15.8324L19.3252 15.7051ZM16.3252 18.7051L16.1979 18.5778C16.086 18.6897 15.9043 18.6897 15.7923 18.5778L15.665 18.7051L15.5378 18.8324C15.7903 19.0849 16.1999 19.0849 16.4525 18.8324L16.3252 18.7051ZM15.665 18.7051L15.7923 18.5778L12.7923 15.5778L12.665 15.7051L12.5378 15.8324L15.5378 18.8324L15.665 18.7051ZM12.665 15.7051L12.7923 15.5778C12.6804 15.4658 12.6804 15.2841 12.7923 15.1722L12.665 15.0449L12.5378 14.9176C12.2852 15.1702 12.2853 15.5798 12.5377 15.8323L12.665 15.7051ZM12.665 15.0449L12.7923 15.1723C12.9043 15.0604 13.0861 15.0604 13.1979 15.1722L13.3252 15.0449L13.4525 14.9176C13.1999 14.6651 12.7903 14.6653 12.5378 14.9176L12.665 15.0449ZM13.3252 15.0449L13.1979 15.1722L15.401 17.3753L15.5283 17.248L15.6556 17.1208L13.4525 14.9176L13.3252 15.0449ZM15.5283 17.248H15.7083V9.7666H15.5283H15.3483V17.248H15.5283ZM15.5283 9.7666H15.7083C15.7083 9.60828 15.8368 9.4798 15.9951 9.4798V9.2998V9.1198C15.638 9.1198 15.3483 9.40946 15.3483 9.7666H15.5283Z" fill="black"/>
</g>
<defs>
<clipPath id="clip0_1944_10109">
<rect width="16" height="16" fill="white" transform="translate(8 8)"/>
</clipPath>
</defs>
</svg>
