<svg width="20" height="20" viewBox="0 0 20 20" fill="none" xmlns="http://www.w3.org/2000/svg" shape-rendering="geometricPrecision">
  <path
    d="M11.9609 0.96582C12.491 0.965872 13 1.17708 13.375 1.55176L16.7803 4.95703C17.1552 5.33197 17.3661 5.84087 17.3662 6.37109V17.0322C17.3662 18.1367 16.4707 19.0321 15.3662 19.0322H4.63281C3.52848 19.0319 2.63281 18.1366 2.63281 17.0322V2.96582C2.63318 1.86174 3.52871 0.966102 4.63281 0.96582H11.9609ZM4.63281 2.36621C4.30191 2.36649 4.03357 2.63494 4.0332 2.96582V17.0322C4.0332 17.3634 4.30168 17.6325 4.63281 17.6328H15.3662C15.6975 17.6327 15.9668 17.3635 15.9668 17.0322V7.13281C15.9665 6.80173 15.6973 6.53233 15.3662 6.53223H13.7998C12.6953 6.53212 11.7998 5.63673 11.7998 4.53223V2.96582C11.7994 2.63489 11.5312 2.36642 11.2002 2.36621H4.63281ZM11.6943 12.917C12.0807 12.9172 12.3935 13.2308 12.3936 13.6172C12.3936 14.0037 12.0807 14.3172 11.6943 14.3174H6.75293C6.36633 14.3174 6.05273 14.0038 6.05273 13.6172C6.05282 13.2307 6.36638 12.917 6.75293 12.917H11.6943ZM12.4131 9.29004C12.7997 9.29006 13.1133 9.60365 13.1133 9.99023C13.1133 10.3768 12.7997 10.6904 12.4131 10.6904H6.75293C6.36633 10.6904 6.05273 10.3768 6.05273 9.99023C6.05273 9.60364 6.36633 9.29004 6.75293 9.29004H12.4131ZM9.58789 5.68262C9.97433 5.68281 10.2871 5.99633 10.2871 6.38281C10.287 6.76922 9.97427 7.08282 9.58789 7.08301H6.75293C6.36638 7.08301 6.05282 6.76934 6.05273 6.38281C6.05273 5.99621 6.36633 5.68262 6.75293 5.68262H9.58789ZM13.2002 4.53223C13.2002 4.86353 13.4685 5.13271 13.7998 5.13281H14.9766L13.2002 3.35645V4.53223Z"
    fill="black" />
</svg>
